<?xml version="1.0" encoding="UTF-8" standalone="no"?>
<!-- Created with Inkscape (http://www.inkscape.org/) -->

<svg
   width="16"
   height="16"
   viewBox="0 0 4.2333332 4.2333334"
   version="1.1"
   id="whistle"
   xml:space="preserve"
   xmlns="http://www.w3.org/2000/svg"
   xmlns:svg="http://www.w3.org/2000/svg"><defs
     id="defs1" /><path
     style="fill:#bf272d;fill-opacity:1;stroke-width:0.175484"
     d="M 0.35358789,4.0694418 C 0.13059873,4.0069426 -3.4948423e-6,3.8337822 0,3.6006563 4.6207216e-6,3.2905429 0.29560973,3.0662547 0.59721679,3.1475227 c 0.084806,0.022857 0.084806,0.022857 0.006023,-0.086326 C -0.1833515,1.9710865 0.44921577,0.40939765 1.7753105,0.16758039 1.9218674,0.14086089 4.1827618,0.14267289 4.209627,0.16948739 4.247658,0.20752419 4.237061,1.2064784 4.198215,1.2453243 4.1716545,1.2718846 4.0232885,1.3663174 3.7924665,1.5035709 3.7630325,1.5210717 3.667848,1.5817589 3.5809474,1.6384083 3.0997774,1.9521347 2.9845984,1.9484422 2.5487298,1.6053149 2.1315863,1.2769301 1.728961,1.3138797 1.5369302,1.6981736 1.2371464,2.2980945 1.8757631,2.8259442 2.4415297,2.4458705 2.5958116,2.3422349 2.5630027,2.3351935 2.7271697,2.5070663 2.8851487,2.6724588 2.8821843,2.6803649 2.5977334,2.8523236 1.5037063,3.5136915 0.42641544,2.0791628 1.3734894,1.2221098 1.7500603,0.88133166 2.2401329,0.88115846 2.7659968,1.2216171 3.0573916,1.4102719 3.0066213,1.409938 3.306526,1.2251139 3.425443,1.1518538 3.5547758,1.0725854 3.5939335,1.0489542 3.8001573,0.92451206 3.79716,0.92840636 3.79716,0.7846852 3.79716,0.59905836 3.8885631,0.6151155 2.833355,0.61536502 1.4517319,0.61569251 1.1558915,0.72729781 0.83880314,1.3677718 0.15204238,2.7549427 1.8914651,4.0594852 3.0334639,3.013736 3.1262984,2.9287296 3.1262984,2.9287296 3.2249804,3.0317928 3.4628034,3.2801667 3.4524001,3.2509565 3.3397885,3.354166 2.7093801,3.9319484 1.6857462,3.9862473 1.0136723,3.4775591 0.91499447,3.4028683 0.9067275,3.3994349 0.92281008,3.4397606 1.0578779,3.7784135 0.7056187,4.1680147 0.35358107,4.0693321 Z M 0.5460393,3.7678926 C 0.71885797,3.6956816 0.65634115,3.4260241 0.466782,3.4260241 c -0.20185929,0 -0.23349377,0.3038111 -0.0368372,0.3537643 0.053043,0.013511 0.0561317,0.013193 0.11609242,-0.011921 z"
     id="path1" /></svg>
